<?xml version="1.0" encoding="UTF-8" standalone="no"?><!DOCTYPE svg PUBLIC "-//W3C//DTD SVG 1.1//EN" "http://www.w3.org/Graphics/SVG/1.1/DTD/svg11.dtd"><svg width="100%" height="100%" viewBox="0 0 47 11" version="1.1" xmlns="http://www.w3.org/2000/svg" xmlns:xlink="http://www.w3.org/1999/xlink" xml:space="preserve" xmlns:serif="http://www.serif.com/" style="fill-rule:evenodd;clip-rule:evenodd;stroke-linejoin:round;stroke-miterlimit:2;"><rect id="Artboard" x="0" y="0" width="47" height="10.5" style="fill:none;"/><clipPath id="_clip1"><rect x="0" y="0" width="47" height="10.5"/></clipPath><g clip-path="url(#_clip1)"><path d="M30,6l0,-0.75c0,-2.898 2.498,-5.25 6.5,-5.25l0,1.5c-1.997,0 -4,1.502 -4,3l4,0l0,6l-6.5,0l0,-1.5l5,0l0,-3l-5,0Z"/><path d="M0,10.5l0,-5.25c0,-2.898 2.498,-5.25 6.5,-5.25l0,1.5c-1.997,0 -4,1.502 -4,3l4,0l0,1.5l-4,0l0,4.5l-2.5,0Z"/><path d="M46,10.486c0.583,0 1,-0.397 1,-0.933l0,-0.136c0,-0.498 -0.431,-0.903 -1,-0.903c-0.573,0 -1,0.399 -1,0.903l0,0.136c0,0.536 0.419,0.933 1,0.933Zm0,-0.226c-0.437,0 -0.75,-0.309 -0.75,-0.709l0,-0.127c0,-0.373 0.315,-0.684 0.75,-0.684c0.435,0 0.752,0.313 0.752,0.684l0,0.127c0,0.4 -0.315,0.709 -0.752,0.709Zm-0.133,-1.035l0.158,0c0.098,0 0.138,0.046 0.138,0.104c0,0.092 -0.073,0.105 -0.146,0.105l-0.15,0l0,-0.209Zm0,0.705l0,-0.295l0.143,0l0.182,0.295l0.296,0l-0.215,-0.326c0.102,-0.028 0.187,-0.135 0.187,-0.273c0,-0.175 -0.139,-0.308 -0.368,-0.308l-0.502,0l0,0.907l0.277,0Z" style="fill-rule:nonzero;"/><path d="M25.061,6c0.347,1.993 2.049,2.895 3.939,3l0,1.5c-4.025,0 -6.5,-2.352 -6.5,-5.25c0,-2.898 2.498,-5.25 6.5,-5.25l0,1.5c-1.997,0 -3.729,1.344 -3.939,3l3.939,0l0,1.5l-3.939,0Z"/><path d="M44,0l0,10.5l-1.5,0l0,-4.5l-2.5,0l0,4.5l-2.5,0l0,-5.25c0,-2.898 2.498,-5.25 6.5,-5.25Zm-4,4.5l2.5,0l0,-2.73c-1.391,0.498 -2.5,1.615 -2.5,2.73Z"/><path d="M22,1.5c-0.879,0 -4.002,0.521 -4,3.75c0.002,3.229 3.006,3.75 4,3.75l0,1.5c-4.025,0 -6.5,-2.352 -6.5,-5.25c0,-2.898 2.498,-5.25 6.5,-5.25l0,1.5Z"/><path d="M14.5,0l0,10.5c-5.499,0 -7,-2.51 -7,-5.25l0,-5.25l2.5,0l0,6c0,1.894 1.558,2.5 3,2.5l0,-8.5l1.5,0Z"/></g></svg>